# File produced by Open Asset Import Library (http://www.assimp.sf.net)
# (assimp v3.1.187496374)

mtllib Low_Poly_Dog.obj.mtl

# 179 vertex positions
v  -8.30414 -31.8205 77.0595
v  -7.31855 -26.9116 76.4914
v  -10.0917 -27.5946 76.4281
v  -5.66361 -26.2286 77.27
v  -7.74122 -29.998 72.6968
v  -6.26673 -36.7884 76.499
v  0.349406 -34.1893 79.3901
v  -7.50849 -33.5486 68.3872
v  -0.340646 -25.4158 77.0308
v  -4.00989 -39.2397 73.917
v  -1.58441 -39.3572 76.6838
v  -5.52801 -38.6119 68.5673
v  -2.37602 -49.327 74.2178
v  -3.39346 -48.7799 71.6941
v  1.00859 -49.6237 75.6765
v  3.04628 -42.212 74.9016
v  5.93637 -36.9318 76.7438
v  0.173407 -49.2883 73.2621
v  -1.83895 -48.003 68.2374
v  -4.19785 -41.065 65.9581
v  2.35781 -47.4189 67.9915
v  3.35761 -48.8378 71.7275
v  6.51324 -36.3096 73.6762
v  8.07859 -32.2066 76.7403
v  5.93786 -35.3323 66.2555
v  2.81965 -34.9423 63.4137
v  0.27904 -29.7956 44.7411
v  5.49878 -30.6199 63.9664
v  -0.0347788 -33.243 60.3697
v  -2.79438 -34.7729 62.9513
v  7.78439 -26.8591 73.4611
v  5.8965 -24.1786 70.003
v  5.60346 -28.4943 50.4254
v  9.65749 -22.4796 53.9943
v  12.2244 -20.2719 33.5022
v  13.5874 -19.8337 46.773
v  4.58648 -27.9401 39.5902
v  10.6265 -13.7652 52.5865
v  13.6552 -3.11738 38.4077
v  12.6143 -16.5397 31.0245
v  7.47233 -23.2808 27.5499
v  9.11195 -11.2724 29.6923
v  10.4336 -12.851 25.9315
v  11.2592 -18.7393 4.5794
v  5.15014 -7.47332 28.5943
v  5.65001 -12.3509 27.1866
v  8.60863 -14.1324 6.13223
v  11.5102 -18.3895 0.85962
v  9.3207 -20.1639 5.96183
v  12.1858 -23.8812 0.85962
v  10.6902 -16.8586 0.85962
v  5.66083 -20.6131 3.44856
v  8.71946 -19.3633 0.85962
v  11.7423 -24.809 0.85962
v  5.49609 -24.3864 0.85962
v  8.47266 -25.805 2.32493
v  7.08681 -26.3473 0.85962
v  10.2673 -26.1441 0.85962
v  0.78302 -16.9732 28.1009
v  -4.66049 -11.5938 26.353
v  -2.81006 -19.8647 30.4788
v  0.0669386 -24.7471 34.4204
v  -2.0536 -29.3665 40.1361
v  -10.6176 -22.7249 35.1003
v  -5.86566 -28.5828 54.3993
v  -9.85785 -23.0677 52.1417
v  -6.37243 -27.3467 64.3041
v  -6.53537 -17.1544 60.6115
v  -7.81161 -25.7665 72.5662
v  -6.73761 -25.8126 75.1217
v  -10.9374 -24.946 71.1583
v  -11.5183 -25.675 72.9352
v  -12.4247 -26.0343 69.4376
v  -11.963 -29.8157 69.9089
v  -13.8343 -32.0367 62.0915
v  -8.97596 -30.1113 64.06
v  4.30505 -24.5122 74.9609
v  8.70722 -26.0609 76.8846
v  3.82984 -14.4395 59.4867
v  3.41056 -3.63397 54.0743
v  -11.3019 -14.0395 51.3913
v  -7.0476 -0.914251 52.6011
v  2.74926 13.5406 53.3964
v  8.62876 11.1363 47.7956
v  8.25186 17.9071 50.1993
v  7.34747 24.6914 50.8155
v  -5.86514 19.5761 52.912
v  -8.62714 11.0446 47.7235
v  -2.10894 31.1211 50.5436
v  -7.74004 26.5466 49.2353
v  -9.03229 17.9662 47.2091
v  -7.43818 34.0829 40.3746
v  -10.6303 27.3376 37.8394
v  -10.5965 23.722 35.9233
v  -4.60274 18.7506 33.2995
v  -8.9947 44.2355 14.698
v  -5.53663 36.6062 30.5745
v  -6.42858 40.7968 22.8594
v  -2.58944 34.7755 44.7222
v  0.897512 33.4734 41.0765
v  -1.96413 31.2621 20.2474
v  -3.39859 47.8379 17.8794
v  0.00285109 30.261 33.6384
v  -2.38272 16.7926 33.3991
v  -2.81236 41.7415 11.7241
v  -7.43676 28.1952 21.8408
v  2.07044 20.2383 32.6884
v  0.446608 10.4161 34.1581
v  -5.55878 10.4707 34.9597
v  2.82942 30.3851 20.5344
v  5.53807 12.4849 35.617
v  4.82004 20.13 31.6706
v  -5.16438 -5.47886 29.3433
v  8.39794 18.4711 44.4129
v  10.1955 33.7944 22.3106
v  9.95034 23.5064 34.5695
v  11.0015 26.0325 37.7926
v  9.01074 44.3186 14.871
v  2.80466 41.4489 12.3122
v  7.5269 39.1543 25.2625
v  8.46519 46.837 3.8617
v  3.65474 47.8483 18.5356
v  7.02793 34.353 40.6072
v  3.93676 36.5945 28.343
v  3.48691 35.079 45.3409
v  2.00853 38.9297 45.9598
v  -2.24333 37.233 44.4623
v  2.3368 40.4168 40.1365
v  1.59762 42.3422 40.7012
v  -0.996952 41.4067 40.7137
v  4.04801 39.0217 21.7299
v  3.51796 33.6655 25.8411
v  4.29917 47.9894 0.85962
v  1.5828 48.7063 0.85962
v  1.56383 47.652 0.85962
v  4.98562 44.6746 4.5123
v  9.13188 41.6756 0.85962
v  2.6811 47.2832 0.85962
v  8.01403 40.5759 0.85962
v  5.1913 39.4422 0.85962
v  -11.6307 -1.3899 37.3108
v  -13.6053 -10.9097 39.6733
v  -13.3114 -16.2273 31.5068
v  -9.64869 -13.2469 26.9809
v  -12.1382 -20.5063 28.8055
v  -8.65555 -13.1675 16.9627
v  -11.3929 -20.1407 4.00097
v  -7.35527 -22.4225 26.1042
v  -5.08266 -21.1436 28.2915
v  -11.1261 -25.156 2.78517
v  -9.26116 -20.6358 5.38547
v  -14.153 -22.4997 0.85962
v  -9.51796 -18.6642 0.85962
v  -7.81609 -15.2549 6.01183
v  -6.80804 -19.6076 3.09486
v  -6.65022 -18.897 15.4821
v  -9.28435 -26.1621 0.85962
v  -7.18031 -23.7058 0.85962
v  -7.50164 -18.6107 0.85962
v  -4.6283 -17.0081 24.8761
v  -6.85008 -15.6007 15.6065
v  -3.73528 -15.7292 28.4159
v  -8.07825 -16.9068 0.85962
v  -13.5617 -24.3166 0.85962
v  -13.4608 -26.5828 0.85962
v  -8.51622 46.027 3.9234
v  -2.72173 44.8082 3.96763
v  -9.21669 41.846 0.85962
v  -5.25967 47.7941 0.85962
v  -2.96713 48.9272 0.85962
v  -2.83242 47.2983 0.85962
v  -6.33638 39.2419 0.85962
v  -4.39023 38.8021 0.85962
v  7.30186 -25.1198 73.4438
v  11.0267 -22.9801 69.6269
v  10.0481 -29.694 73.6466
v  8.66187 -29.3048 64.2124
v  7.5505 -33.4587 68.1243
v  13.4649 -32.2359 61.8302

# 0 UV coordinates

# 179 vertex normals
vn -0.399039 -0.0887826 0.912626
vn -0.345355 0.562629 0.751118
vn -0.838385 -0.254331 0.482106
vn -0.773862 0.513762 0.370386
vn -0.757046 0.28944 -0.585752
vn -0.786318 -0.45818 0.414458
vn 0.00741359 -0.0309673 0.999493
vn -0.159118 -0.979941 0.119989
vn -0.0875602 0.708646 0.700111
vn -0.875717 -0.29402 0.382978
vn -0.150729 -0.325434 0.933474
vn -0.969519 -0.230079 -0.0842467
vn -0.694822 -0.293244 0.656681
vn -0.928233 -0.371623 -0.0167392
vn 0.30091 -0.303306 0.904134
vn 0.604993 -0.265107 0.750801
vn 0.426224 -0.436426 0.79238
vn 0.0199368 -0.968091 -0.249806
vn -0.145891 -0.536873 -0.830954
vn -0.574829 -0.347788 -0.740686
vn 0.469534 -0.509919 -0.720778
vn 0.92899 -0.368679 0.0324573
vn 0.951094 -0.301441 0.067475
vn 0.828485 -0.302602 0.471216
vn 0.938159 -0.159269 -0.307396
vn 0.337619 -0.571706 -0.747774
vn 0.126732 -0.965724 -0.226532
vn 0.866923 -0.489788 -0.0924806
vn -0.00728815 -0.964279 -0.264789
vn -0.551746 -0.716141 -0.427455
vn -0.405945 0.664788 -0.627108
vn 0.945677 0.22381 0.235806
vn 0.672187 -0.738418 -0.0538814
vn 0.938218 -0.289448 0.189648
vn 0.877806 -0.466374 -0.109328
vn 0.967636 -0.230834 0.101961
vn 0.261183 -0.902157 -0.34336
vn 0.828186 0.194967 0.525448
vn 0.967723 0.203558 -0.148583
vn 0.978034 -0.132249 -0.161122
vn -0.0837791 -0.955921 -0.281419
vn 0.518917 0.700116 -0.490472
vn 0.844796 0.528318 -0.0848525
vn 0.99136 -0.130005 -0.0174589
vn 0.321431 0.284676 -0.903129
vn -0.927357 0.255841 -0.273045
vn -0.143614 0.956612 -0.253511
vn 0.894108 0.315718 -0.317635
vn 0.357198 -0.902008 0.242468
vn 0.983345 -0.148665 -0.104551
vn -0.23961 0.686706 -0.68631
vn -0.99233 -0.118149 -0.0363554
vn -0.410161 0.306019 -0.859139
vn 0.321807 -0.272819 -0.906648
vn -0.490366 -0.0283615 -0.871055
vn -0.286583 -0.553736 0.781823
vn -0.338552 -0.919008 -0.202006
vn 0.559283 -0.789183 0.253756
vn -0.188446 -0.434963 -0.880509
vn -0.192404 0.45781 -0.867981
vn 0.0855931 -0.718995 -0.689725
vn 0.0965059 -0.704694 -0.702917
vn -0.296035 -0.8814 -0.368099
vn -0.735371 -0.670407 -0.0989188
vn -0.691657 -0.717643 -0.0812312
vn -0.953925 -0.259034 0.151423
vn -0.992088 -0.12154 -0.0314675
vn -0.562986 0.494817 0.661969
vn 0.544914 0.815104 -0.19666
vn -0.481271 0.823397 0.300659
vn 0.479804 0.460398 -0.746875
vn -0.780492 0.430776 0.453061
vn -0.0578234 0.918796 -0.390474
vn -0.768641 -0.527765 0.361462
vn -0.796575 -0.467591 -0.383181
vn 0.692099 0.522429 -0.498063
vn 0.346273 0.822046 0.452035
vn 0.37667 0.400552 0.835271
vn 0.226669 0.718307 0.657766
vn 0.110247 0.28042 0.953525
vn -0.924316 0.0926412 0.370212
vn -0.422749 0.177537 0.888687
vn 0.251569 0.071639 0.965184
vn 0.947861 0.183909 0.260262
vn 0.902292 -0.0608689 0.426806
vn 0.557181 0.298933 0.774718
vn -0.329901 0.111898 0.93736
vn -0.980759 0.159084 0.113158
vn -0.210926 0.44792 0.868837
vn -0.839646 0.300368 0.452518
vn -0.982387 -0.179578 0.0516415
vn -0.742833 0.612284 0.270752
vn -0.916354 0.338753 0.213407
vn -0.91177 -0.342553 -0.226569
vn -0.723406 -0.497273 -0.47896
vn -0.987655 0.0285405 -0.154025
vn 0.192971 0.978472 0.0731801
vn 0.0389777 0.758513 0.650491
vn -0.145991 0.987451 0.0602217
vn 0.233738 0.961563 -0.144096
vn 0.972648 -0.0131687 -0.23191
vn 0.585303 0.736401 0.339314
vn -0.32993 0.129614 -0.935065
vn 0.522195 -0.283124 -0.804458
vn 0.305428 -0.69219 -0.653901
vn -0.591241 -0.539974 -0.599052
vn -0.538383 -0.298613 -0.788019
vn 0.0200237 0.198873 -0.979821
vn -0.740514 0.257513 -0.620746
vn -0.619192 -0.463338 -0.633971
vn 0.776387 0.207582 -0.59509
vn 0.590024 -0.590144 -0.551001
vn -0.294148 0.317522 -0.901475
vn 0.946234 -0.26111 -0.190953
vn 0.714882 -0.449835 -0.535343
vn 0.797078 -0.524692 -0.298939
vn 0.967222 0.195719 0.161787
vn 0.983134 0.182669 -0.00889872
vn -0.447936 -0.730068 -0.516096
vn 0.65125 0.652801 0.386943
vn 0.948677 0.306735 -0.0769829
vn -0.353813 0.865011 0.35577
vn 0.73847 0.613088 0.280686
vn -0.634155 0.757616 0.154486
vn 0.480426 0.87656 -0.0288607
vn 0.290558 0.588128 0.754772
vn -0.961769 0.26439 -0.0714012
vn 0.39781 -0.476749 -0.783873
vn -0.13943 0.862213 0.486978
vn -0.67104 -0.0405186 -0.740314
vn -0.994516 0.0573002 0.0874896
vn -0.948878 0.298446 -0.102765
vn 0.332249 0.889646 -0.313273
vn -0.122357 0.992172 -0.0249809
vn -0.968609 -0.245928 -0.0362689
vn -0.0846369 -0.958785 0.271235
vn 0.9847 0.0123868 -0.173816
vn -0.631017 -0.278813 -0.723935
vn 0.243987 -0.430494 -0.868991
vn -0.781785 -0.621594 0.049324
vn -0.876561 0.24151 -0.416311
vn -0.997378 0.0699933 -0.018381
vn -0.971559 0.223744 -0.0775337
vn -0.552841 0.808709 -0.200892
vn -0.736611 -0.675263 -0.037748
vn -0.643225 0.753625 -0.135317
vn -0.996728 -0.0537309 -0.060385
vn 0.230626 -0.963817 -0.133671
vn 0.400939 -0.908877 0.114845
vn -0.0561068 -0.495409 0.866846
vn 0.478974 -0.874549 0.0758142
vn -0.714885 0.232005 -0.659631
vn -0.524421 0.492017 -0.694912
vn 0.481249 0.836593 -0.261747
vn 0.934215 -0.290522 0.206975
vn 0.946778 -0.307437 -0.0953586
vn 0.60595 -0.786119 0.121823
vn 0.252807 -0.059682 -0.965674
vn 0.831871 0.201993 -0.516904
vn 0.95131 -0.178344 -0.251403
vn 0.985581 -0.0181035 -0.168231
vn 0.95935 0.0795604 -0.270772
vn -0.0222016 0.837108 -0.546588
vn -0.284222 -0.0481843 -0.957547
vn -0.394152 -0.913553 0.100329
vn -0.997711 0.051976 -0.0432521
vn 0.795363 -0.522746 0.306812
vn -0.858415 -0.413097 0.304097
vn -0.46987 0.778994 -0.415201
vn 0.200078 0.979476 -0.024398
vn 0.908959 0.0101335 -0.416763
vn -0.28485 -0.451659 -0.845496
vn 0.864942 -0.376188 -0.332202
vn 0.918118 0.251649 -0.306158
vn 0.641307 0.761355 -0.0952089
vn 0.905044 -0.291522 0.309693
vn -0.776717 0.334225 -0.533858
vn -0.635009 -0.770153 -0.060231
vn 0.944539 -0.291717 -0.150823

# Mesh '"Low_Poly_Dog"' with 354 faces
g "Low_Poly_Dog"
usemtl DefaultMaterial
f  1//1 2//2 3//3
f  4//4 2//2 1//1
f  1//1 5//5 6//6
f  7//7 1//1 6//6
f  8//8 5//5 1//1
f  8//8 1//1 3//3
f  9//9 4//4 1//1
f  9//9 1//1 7//7
f  10//10 11//11 6//6
f  6//6 12//12 10//10
f  6//6 11//11 7//7
f  12//12 6//6 5//5
f  11//11 10//10 13//13
f  10//10 12//12 14//14
f  14//14 13//13 10//10
f  13//13 15//15 11//11
f  11//11 15//15 16//16
f  7//7 11//11 17//17
f  16//16 17//17 11//11
f  14//14 18//18 13//13
f  18//18 15//15 13//13
f  19//19 14//14 20//20
f  12//12 20//20 14//14
f  18//18 14//14 19//19
f  21//21 22//22 18//18
f  21//21 18//18 19//19
f  15//15 18//18 22//22
f  15//15 22//22 16//16
f  17//17 16//16 23//23
f  23//23 16//16 22//22
f  24//24 17//17 23//23
f  7//7 17//17 24//24
f  23//23 25//25 24//24
f  22//22 25//25 23//23
f  22//22 21//21 25//25
f  21//21 26//26 25//25
f  19//19 26//26 21//21
f  19//19 20//20 26//26
f  27//27 28//28 26//26
f  26//26 29//29 27//27
f  28//28 25//25 26//26
f  29//29 26//26 30//30
f  30//30 26//26 20//20
f  31//31 24//24 25//25
f  25//25 28//28 32//32
f  32//32 31//31 25//25
f  33//33 28//28 27//27
f  32//32 28//28 34//34
f  28//28 33//33 34//34
f  35//35 36//36 33//33
f  34//34 33//33 36//36
f  27//27 37//37 33//33
f  37//37 35//35 33//33
f  36//36 38//38 34//34
f  38//38 32//32 34//34
f  35//35 39//39 36//36
f  38//38 36//36 39//39
f  40//40 35//35 41//41
f  40//40 39//39 35//35
f  37//37 41//41 35//35
f  42//42 39//39 40//40
f  40//40 43//43 42//42
f  41//41 44//44 40//40
f  43//43 40//40 44//44
f  45//45 39//39 42//42
f  42//42 46//46 45//45
f  43//43 47//47 42//42
f  42//42 47//47 46//46
f  47//47 43//43 44//44
f  47//47 44//44 48//48
f  44//44 49//49 50//50
f  44//44 50//50 48//48
f  44//44 41//41 49//49
f  47//47 48//48 51//51
f  52//52 46//46 47//47
f  51//51 53//53 47//47
f  52//52 47//47 53//53
f  53//53 48//48 50//50
f  53//53 51//51 48//48
f  54//54 50//50 49//49
f  53//53 50//50 54//54
f  52//52 53//53 55//55
f  55//55 53//53 54//54
f  56//56 49//49 52//52
f  41//41 46//46 52//52
f  56//56 52//52 55//55
f  52//52 49//49 41//41
f  56//56 55//55 57//57
f  57//57 55//55 58//58
f  55//55 54//54 58//58
f  49//49 58//58 54//54
f  49//49 56//56 58//58
f  56//56 57//57 58//58
f  41//41 59//59 46//46
f  59//59 41//41 37//37
f  59//59 45//45 46//46
f  60//60 59//59 61//61
f  59//59 37//37 62//62
f  61//61 59//59 62//62
f  60//60 45//45 59//59
f  27//27 63//63 37//37
f  62//62 37//37 63//63
f  62//62 63//63 61//61
f  61//61 63//63 64//64
f  63//63 27//27 65//65
f  64//64 63//63 65//65
f  29//29 30//30 27//27
f  27//27 30//30 65//65
f  65//65 66//66 64//64
f  67//67 66//66 65//65
f  67//67 65//65 30//30
f  20//20 67//67 30//30
f  66//66 67//67 68//68
f  5//5 4//4 67//67
f  67//67 12//12 5//5
f  4//4 68//68 67//67
f  67//67 20//20 12//12
f  4//4 5//5 69//69
f  69//69 70//70 4//4
f  68//68 4//4 9//9
f  4//4 70//70 2//2
f  2//2 70//70 69//69
f  5//5 71//71 69//69
f  69//69 3//3 2//2
f  69//69 71//71 72//72
f  72//72 3//3 69//69
f  71//71 5//5 73//73
f  72//72 71//71 73//73
f  3//3 72//72 74//74
f  72//72 73//73 74//74
f  3//3 74//74 8//8
f  74//74 73//73 75//75
f  74//74 75//75 8//8
f  76//76 75//75 73//73
f  73//73 5//5 76//76
f  76//76 8//8 75//75
f  76//76 5//5 8//8
f  77//77 9//9 78//78
f  79//79 9//9 77//77
f  9//9 79//79 68//68
f  7//7 78//78 9//9
f  77//77 32//32 79//79
f  32//32 77//77 78//78
f  79//79 32//32 38//38
f  79//79 38//38 80//80
f  80//80 68//68 79//79
f  81//81 66//66 68//68
f  81//81 68//68 82//82
f  68//68 80//80 82//82
f  38//38 83//83 80//80
f  82//82 80//80 83//83
f  39//39 84//84 38//38
f  83//83 38//38 84//84
f  83//83 85//85 86//86
f  83//83 84//84 85//85
f  86//86 87//87 83//83
f  83//83 87//87 82//82
f  87//87 88//88 82//82
f  82//82 88//88 81//81
f  87//87 86//86 89//89
f  90//90 87//87 89//89
f  91//91 88//88 87//87
f  87//87 90//90 91//91
f  90//90 89//89 92//92
f  91//91 90//90 93//93
f  90//90 92//92 93//93
f  91//91 93//93 94//94
f  91//91 94//94 95//95
f  91//91 95//95 88//88
f  94//94 93//93 96//96
f  93//93 97//97 98//98
f  98//98 96//96 93//93
f  97//97 93//93 92//92
f  99//99 97//97 92//92
f  99//99 92//92 89//89
f  97//97 100//100 101//101
f  101//101 98//98 97//97
f  99//99 100//100 97//97
f  101//101 102//102 98//98
f  102//102 96//96 98//98
f  101//101 100//100 103//103
f  101//101 103//103 104//104
f  105//105 101//101 106//106
f  101//101 104//104 95//95
f  95//95 106//106 101//101
f  102//102 101//101 105//105
f  103//103 107//107 104//104
f  108//108 109//109 104//104
f  104//104 107//107 108//108
f  95//95 104//104 109//109
f  103//103 110//110 107//107
f  111//111 107//107 112//112
f  108//108 107//107 111//111
f  112//112 107//107 110//110
f  113//113 108//108 45//45
f  113//113 109//109 108//108
f  45//45 108//108 111//111
f  114//114 111//111 112//112
f  45//45 111//111 39//39
f  114//114 84//84 111//111
f  39//39 111//111 84//84
f  112//112 115//115 116//116
f  112//112 110//110 115//115
f  116//116 114//114 112//112
f  116//116 117//117 114//114
f  85//85 114//114 117//117
f  85//85 84//84 114//114
f  117//117 116//116 115//115
f  118//118 117//117 115//115
f  115//115 110//110 119//119
f  119//119 118//118 115//115
f  118//118 120//120 117//117
f  121//121 118//118 119//119
f  118//118 122//122 120//120
f  118//118 121//121 122//122
f  117//117 120//120 123//123
f  120//120 122//122 124//124
f  123//123 120//120 124//124
f  86//86 123//123 125//125
f  86//86 117//117 123//123
f  124//124 125//125 123//123
f  86//86 126//126 89//89
f  85//85 117//117 86//86
f  86//86 125//125 126//126
f  89//89 126//126 127//127
f  126//126 125//125 128//128
f  128//128 129//129 126//126
f  127//127 126//126 129//129
f  89//89 127//127 99//99
f  129//129 130//130 127//127
f  128//128 125//125 127//127
f  127//127 130//130 128//128
f  99//99 127//127 125//125
f  128//128 130//130 129//129
f  100//100 125//125 124//124
f  100//100 99//99 125//125
f  103//103 100//100 124//124
f  124//124 131//131 132//132
f  122//122 131//131 124//124
f  124//124 132//132 103//103
f  110//110 103//103 132//132
f  132//132 131//131 110//110
f  131//131 119//119 110//110
f  119//119 131//131 122//122
f  122//122 133//133 134//134
f  122//122 121//121 133//133
f  134//134 135//135 122//122
f  119//119 122//122 135//135
f  121//121 119//119 136//136
f  136//136 119//119 135//135
f  121//121 136//136 137//137
f  121//121 137//137 133//133
f  138//138 134//134 133//133
f  139//139 133//133 137//137
f  138//138 133//133 139//139
f  135//135 134//134 138//138
f  136//136 135//135 138//138
f  136//136 140//140 139//139
f  139//139 137//137 136//136
f  136//136 138//138 140//140
f  138//138 139//139 140//140
f  60//60 113//113 45//45
f  141//141 113//113 60//60
f  109//109 113//113 141//141
f  88//88 141//141 142//142
f  60//60 142//142 141//141
f  109//109 141//141 88//88
f  109//109 88//88 95//95
f  142//142 81//81 88//88
f  142//142 66//66 81//81
f  143//143 64//64 142//142
f  64//64 66//66 142//142
f  142//142 60//60 144//144
f  143//143 142//142 144//144
f  143//143 145//145 64//64
f  146//146 143//143 144//144
f  143//143 146//146 147//147
f  143//143 147//147 145//145
f  64//64 145//145 148//148
f  61//61 64//64 149//149
f  64//64 148//148 149//149
f  147//147 148//148 145//145
f  150//150 151//151 147//147
f  150//150 147//147 152//152
f  147//147 153//153 152//152
f  147//147 154//154 153//153
f  148//148 147//147 151//151
f  146//146 154//154 147//147
f  151//151 150//150 155//155
f  151//151 156//156 148//148
f  155//155 156//156 151//151
f  155//155 157//157 158//158
f  155//155 150//150 157//157
f  155//155 158//158 159//159
f  154//154 155//155 159//159
f  156//156 155//155 154//154
f  156//156 160//160 148//148
f  156//156 154//154 161//161
f  156//156 161//161 160//160
f  148//148 160//160 61//61
f  60//60 160//160 161//161
f  61//61 160//160 162//162
f  160//160 60//60 162//162
f  61//61 149//149 148//148
f  61//61 162//162 60//60
f  146//146 144//144 60//60
f  60//60 161//161 154//154
f  146//146 60//60 154//154
f  163//163 153//153 154//154
f  154//154 159//159 163//163
f  163//163 159//159 153//153
f  153//153 159//159 158//158
f  153//153 158//158 152//152
f  164//164 158//158 157//157
f  152//152 158//158 164//164
f  150//150 152//152 164//164
f  150//150 164//164 165//165
f  164//164 157//157 165//165
f  150//150 165//165 157//157
f  94//94 106//106 95//95
f  94//94 96//96 106//106
f  96//96 105//105 106//106
f  96//96 166//166 105//105
f  96//96 102//102 166//166
f  166//166 167//167 105//105
f  102//102 105//105 167//167
f  166//166 168//168 167//167
f  166//166 102//102 169//169
f  166//166 169//169 168//168
f  170//170 169//169 102//102
f  102//102 171//171 170//170
f  102//102 167//167 171//171
f  167//167 172//172 173//173
f  172//172 167//167 168//168
f  167//167 173//173 171//171
f  169//169 172//172 168//168
f  169//169 171//171 172//172
f  169//169 170//170 171//171
f  171//171 173//173 172//172
f  78//78 174//174 32//32
f  32//32 174//174 31//31
f  31//31 174//174 78//78
f  175//175 31//31 78//78
f  24//24 78//78 7//7
f  176//176 78//78 24//24
f  176//176 175//175 78//78
f  177//177 31//31 175//175
f  177//177 178//178 31//31
f  24//24 31//31 178//178
f  175//175 179//179 177//177
f  179//179 175//175 176//176
f  179//179 176//176 178//178
f  176//176 24//24 178//178
f  178//178 177//177 179//179

